{
    "asset": {
        "version": "2.0",
        "generator": "Open Asset Import Library (assimp v6.0.b447485c)"
    },
    "extensionsUsed": [
        "KHR_materials_specular",
        "KHR_materials_volume",
        "FB_ngon_encoding"
    ],
    "accessors": [
        {
            "bufferView": 0,
            "byteOffset": 0,
            "componentType": 5126,
            "count": 442,
            "type": "VEC3",
            "max": [
                0.38371238112449646,
                1.61916184425354,
                0.33858245611190796
            ],
            "min": [
                -0.3827302157878876,
                2.2250738585072014e-308,
                -0.24923135340213776
            ]
        },
        {
            "bufferView": 1,
            "byteOffset": 0,
            "componentType": 5126,
            "count": 442,
            "type": "VEC3",
            "max": [
                0.9991918802261353,
                0.9942504167556763,
                0.999840259552002
            ],
            "min": [
                -0.9925486445426941,
                -0.9851688146591187,
                -0.9986039996147156
            ]
        },
        {
            "bufferView": 2,
            "byteOffset": 0,
            "componentType": 5126,
            "count": 442,
            "type": "VEC2",
            "max": [
                0.6931599974632263,
                0.603119969367981
            ],
            "min": [
                2.2250738585072014e-308,
                2.2250738585072014e-308
            ]
        },
        {
            "bufferView": 3,
            "byteOffset": 0,
            "componentType": 5125,
            "count": 2061,
            "type": "SCALAR",
            "max": [
                441
            ],
            "min": [
                0
            ]
        },
        {
            "bufferView": 4,
            "byteOffset": 0,
            "componentType": 5126,
            "count": 160,
            "type": "VEC3",
            "max": [
                0.17964768409729004,
                0.13001012802124023,
                0.2414490133523941
            ],
            "min": [
                -0.1769585758447647,
                -0.0016977698542177677,
                -0.13428367674350739
            ]
        },
        {
            "bufferView": 5,
            "byteOffset": 0,
            "componentType": 5126,
            "count": 160,
            "type": "VEC3",
            "max": [
                0.9927802085876465,
                0.9570525884628296,
                0.995905339717865
            ],
            "min": [
                -0.9927800893783569,
                -0.9992049336433411,
                -0.9428603649139404
            ]
        },
        {
            "bufferView": 6,
            "byteOffset": 0,
            "componentType": 5126,
            "count": 160,
            "type": "VEC2",
            "max": [
                0.23616300523281097,
                0.18829798698425293
            ],
            "min": [
                2.2250738585072014e-308,
                2.2250738585072014e-308
            ]
        },
        {
            "bufferView": 7,
            "byteOffset": 0,
            "componentType": 5125,
            "count": 720,
            "type": "SCALAR",
            "max": [
                159
            ],
            "min": [
                0
            ]
        },
        {
            "bufferView": 8,
            "byteOffset": 0,
            "componentType": 5126,
            "count": 23,
            "type": "VEC3",
            "max": [
                0.1025470420718193,
                1.588909387588501,
                0.2944411337375641
            ],
            "min": [
                2.2250738585072014e-308,
                2.2250738585072014e-308,
                2.2250738585072014e-308
            ]
        },
        {
            "bufferView": 9,
            "byteOffset": 0,
            "componentType": 5126,
            "count": 23,
            "type": "VEC3",
            "max": [
                0.9681880474090576,
                0.9868990182876587,
                0.903538167476654
            ],
            "min": [
                -0.9432461857795715,
                -0.9963151216506958,
                -0.6962510943412781
            ]
        },
        {
            "bufferView": 10,
            "byteOffset": 0,
            "componentType": 5126,
            "count": 23,
            "type": "VEC2",
            "max": [
                0.3068769872188568,
                0.17647498846054077
            ],
            "min": [
                2.2250738585072014e-308,
                2.2250738585072014e-308
            ]
        },
        {
            "bufferView": 11,
            "byteOffset": 0,
            "componentType": 5125,
            "count": 84,
            "type": "SCALAR",
            "max": [
                22
            ],
            "min": [
                0
            ]
        },
        {
            "bufferView": 12,
            "byteOffset": 0,
            "componentType": 5126,
            "count": 275,
            "type": "VEC3",
            "max": [
                0.18496909737586975,
                1.899679183959961,
                0.18384797871112823
            ],
            "min": [
                -0.18498261272907257,
                2.2250738585072014e-308,
                -0.1811572015285492
            ]
        },
        {
            "bufferView": 13,
            "byteOffset": 0,
            "componentType": 5126,
            "count": 275,
            "type": "VEC3",
            "max": [
                0.9842734932899475,
                0.9622396230697632,
                0.9900369644165039
            ],
            "min": [
                -0.9858811497688293,
                -0.987045407295227,
                -0.9997263550758362
            ]
        },
        {
            "bufferView": 14,
            "byteOffset": 0,
            "componentType": 5126,
            "count": 275,
            "type": "VEC2",
            "max": [
                0.9864190220832825,
                0.2728549838066101
            ],
            "min": [
                2.2250738585072014e-308,
                2.2250738585072014e-308
            ]
        },
        {
            "bufferView": 15,
            "byteOffset": 0,
            "componentType": 5125,
            "count": 1188,
            "type": "SCALAR",
            "max": [
                274
            ],
            "min": [
                0
            ]
        },
        {
            "bufferView": 16,
            "byteOffset": 0,
            "componentType": 5126,
            "count": 20,
            "type": "VEC3",
            "max": [
                0.04711374640464783,
                1.603678584098816,
                0.1520334929227829
            ],
            "min": [
                -0.04711374640464783,
                2.2250738585072014e-308,
                2.2250738585072014e-308
            ]
        },
        {
            "bufferView": 17,
            "byteOffset": 0,
            "componentType": 5126,
            "count": 20,
            "type": "VEC3",
            "max": [
                0.9938287138938904,
                0.1932794451713562,
                0.9811437726020813
            ],
            "min": [
                -0.9938282370567322,
                -0.9346935153007507,
                -0.8842471837997437
            ]
        },
        {
            "bufferView": 18,
            "byteOffset": 0,
            "componentType": 5126,
            "count": 20,
            "type": "VEC2",
            "max": [
                0.773231029510498,
                0.6693320274353027
            ],
            "min": [
                2.2250738585072014e-308,
                2.2250738585072014e-308
            ]
        },
        {
            "bufferView": 19,
            "byteOffset": 0,
            "componentType": 5125,
            "count": 78,
            "type": "SCALAR",
            "max": [
                19
            ],
            "min": [
                0
            ]
        },
        {
            "bufferView": 20,
            "byteOffset": 0,
            "componentType": 5126,
            "count": 179,
            "type": "VEC3",
            "max": [
                0.17910636961460114,
                1.9925434589385986,
                0.15376430749893188
            ],
            "min": [
                -0.17263293266296387,
                2.2250738585072014e-308,
                -0.21106982231140137
            ]
        },
        {
            "bufferView": 21,
            "byteOffset": 0,
            "componentType": 5126,
            "count": 179,
            "type": "VEC3",
            "max": [
                0.9800033569335938,
                0.9403023719787598,
                0.9877247214317322
            ],
            "min": [
                -0.946004331111908,
                -0.9747119545936584,
                -0.992898166179657
            ]
        },
        {
            "bufferView": 22,
            "byteOffset": 0,
            "componentType": 5126,
            "count": 179,
            "type": "VEC2",
            "max": [
                0.9976999759674072,
                0.9982600212097168
            ],
            "min": [
                2.2250738585072014e-308,
                2.2250738585072014e-308
            ]
        },
        {
            "bufferView": 23,
            "byteOffset": 0,
            "componentType": 5125,
            "count": 738,
            "type": "SCALAR",
            "max": [
                178
            ],
            "min": [
                0
            ]
        },
        {
            "bufferView": 24,
            "byteOffset": 0,
            "componentType": 5126,
            "count": 20,
            "type": "VEC3",
            "max": [
                -0.03174912557005882,
                1.7578986883163452,
                0.1314893364906311
            ],
            "min": [
                -0.07005206495523453,
                2.2250738585072014e-308,
                2.2250738585072014e-308
            ]
        },
        {
            "bufferView": 25,
            "byteOffset": 0,
            "componentType": 5126,
            "count": 20,
            "type": "VEC3",
            "max": [
                1.0,
                0.9501124024391174,
                0.9405309557914734
            ],
            "min": [
                -1.0,
                -0.9501132369041443,
                -0.4215012490749359
            ]
        },
        {
            "bufferView": 26,
            "byteOffset": 0,
            "componentType": 5126,
            "count": 20,
            "type": "VEC2",
            "max": [
                0.597458004951477,
                0.25794899463653564
            ],
            "min": [
                2.2250738585072014e-308,
                2.2250738585072014e-308
            ]
        },
        {
            "bufferView": 27,
            "byteOffset": 0,
            "componentType": 5125,
            "count": 54,
            "type": "SCALAR",
            "max": [
                19
            ],
            "min": [
                0
            ]
        },
        {
            "bufferView": 28,
            "byteOffset": 0,
            "componentType": 5126,
            "count": 19,
            "type": "VEC3",
            "max": [
                0.06658846884965897,
                1.7574419975280762,
                0.1313723921775818
            ],
            "min": [
                2.2250738585072014e-308,
                2.2250738585072014e-308,
                2.2250738585072014e-308
            ]
        },
        {
            "bufferView": 29,
            "byteOffset": 0,
            "componentType": 5126,
            "count": 19,
            "type": "VEC3",
            "max": [
                0.8216116428375244,
                0.9262637495994568,
                0.9325492978096008
            ],
            "min": [
                -0.8216081857681274,
                -0.9262625575065613,
                -0.42051079869270325
            ]
        },
        {
            "bufferView": 30,
            "byteOffset": 0,
            "componentType": 5126,
            "count": 19,
            "type": "VEC2",
            "max": [
                0.597458004951477,
                0.25794899463653564
            ],
            "min": [
                2.2250738585072014e-308,
                2.2250738585072014e-308
            ]
        },
        {
            "bufferView": 31,
            "byteOffset": 0,
            "componentType": 5125,
            "count": 54,
            "type": "SCALAR",
            "max": [
                18
            ],
            "min": [
                0
            ]
        },
        {
            "bufferView": 32,
            "byteOffset": 0,
            "componentType": 5126,
            "count": 20,
            "type": "VEC3",
            "max": [
                0.04711374640464783,
                1.5702095031738281,
                0.14502541720867157
            ],
            "min": [
                -0.04711374640464783,
                2.2250738585072014e-308,
                2.2250738585072014e-308
            ]
        },
        {
            "bufferView": 33,
            "byteOffset": 0,
            "componentType": 5126,
            "count": 20,
            "type": "VEC3",
            "max": [
                0.993826150894165,
                0.9448779821395874,
                0.9241318702697754
            ],
            "min": [
                -0.9938257932662964,
                -0.3820737898349762,
                -0.7855834364891052
            ]
        },
        {
            "bufferView": 34,
            "byteOffset": 0,
            "componentType": 5126,
            "count": 20,
            "type": "VEC2",
            "max": [
                0.773231029510498,
                0.6693320274353027
            ],
            "min": [
                2.2250738585072014e-308,
                2.2250738585072014e-308
            ]
        },
        {
            "bufferView": 35,
            "byteOffset": 0,
            "componentType": 5125,
            "count": 78,
            "type": "SCALAR",
            "max": [
                19
            ],
            "min": [
                0
            ]
        },
        {
            "bufferView": 36,
            "byteOffset": 0,
            "componentType": 5126,
            "count": 219,
            "type": "VEC3",
            "max": [
                0.25012460350990295,
                0.9821932911872864,
                0.3057548403739929
            ],
            "min": [
                -0.25730183720588684,
                2.2250738585072014e-308,
                -0.2127150446176529
            ]
        },
        {
            "bufferView": 37,
            "byteOffset": 0,
            "componentType": 5126,
            "count": 219,
            "type": "VEC3",
            "max": [
                0.9977956414222717,
                0.7076114416122437,
                0.9831658601760864
            ],
            "min": [
                -0.9997116923332214,
                -0.9955863952636719,
                -0.9934572577476501
            ]
        },
        {
            "bufferView": 38,
            "byteOffset": 0,
            "componentType": 5126,
            "count": 219,
            "type": "VEC2",
            "max": [
                0.6641600131988525,
                0.9962599873542786
            ],
            "min": [
                2.2250738585072014e-308,
                2.2250738585072014e-308
            ]
        },
        {
            "bufferView": 39,
            "byteOffset": 0,
            "componentType": 5125,
            "count": 1068,
            "type": "SCALAR",
            "max": [
                218
            ],
            "min": [
                0
            ]
        },
        {
            "bufferView": 40,
            "byteOffset": 0,
            "componentType": 5126,
            "count": 310,
            "type": "VEC3",
            "max": [
                0.9611714482307434,
                1.502931833267212,
                0.03218621760606766
            ],
            "min": [
                -0.9611345529556274,
                2.2250738585072014e-308,
                -0.15478721261024475
            ]
        },
        {
            "bufferView": 41,
            "byteOffset": 0,
            "componentType": 5126,
            "count": 310,
            "type": "VEC3",
            "max": [
                0.9210179448127747,
                0.9987313151359558,
                0.9695794582366943
            ],
            "min": [
                -0.9239904880523682,
                -0.9805386066436768,
                -0.999423623085022
            ]
        },
        {
            "bufferView": 42,
            "byteOffset": 0,
            "componentType": 5126,
            "count": 310,
            "type": "VEC2",
            "max": [
                0.9463000297546387,
                0.5577499866485596
            ],
            "min": [
                2.2250738585072014e-308,
                2.2250738585072014e-308
            ]
        },
        {
            "bufferView": 43,
            "byteOffset": 0,
            "componentType": 5125,
            "count": 1272,
            "type": "SCALAR",
            "max": [
                309
            ],
            "min": [
                0
            ]
        }
    ],
    "buffers": [
        {
            "byteLength": 83564,
            "uri": "Jump_lod3.bin"
        }
    ],
    "bufferViews": [
        {
            "buffer": 0,
            "byteOffset": 0,
            "byteLength": 5304,
            "target": 34962
        },
        {
            "buffer": 0,
            "byteOffset": 5304,
            "byteLength": 5304,
            "target": 34962
        },
        {
            "buffer": 0,
            "byteOffset": 10608,
            "byteLength": 3536,
            "target": 34962
        },
        {
            "buffer": 0,
            "byteOffset": 14144,
            "byteLength": 8244,
            "target": 34963
        },
        {
            "buffer": 0,
            "byteOffset": 22388,
            "byteLength": 1920,
            "target": 34962
        },
        {
            "buffer": 0,
            "byteOffset": 24308,
            "byteLength": 1920,
            "target": 34962
        },
        {
            "buffer": 0,
            "byteOffset": 26228,
            "byteLength": 1280,
            "target": 34962
        },
        {
            "buffer": 0,
            "byteOffset": 27508,
            "byteLength": 2880,
            "target": 34963
        },
        {
            "buffer": 0,
            "byteOffset": 30388,
            "byteLength": 276,
            "target": 34962
        },
        {
            "buffer": 0,
            "byteOffset": 30664,
            "byteLength": 276,
            "target": 34962
        },
        {
            "buffer": 0,
            "byteOffset": 30940,
            "byteLength": 184,
            "target": 34962
        },
        {
            "buffer": 0,
            "byteOffset": 31124,
            "byteLength": 336,
            "target": 34963
        },
        {
            "buffer": 0,
            "byteOffset": 31460,
            "byteLength": 3300,
            "target": 34962
        },
        {
            "buffer": 0,
            "byteOffset": 34760,
            "byteLength": 3300,
            "target": 34962
        },
        {
            "buffer": 0,
            "byteOffset": 38060,
            "byteLength": 2200,
            "target": 34962
        },
        {
            "buffer": 0,
            "byteOffset": 40260,
            "byteLength": 4752,
            "target": 34963
        },
        {
            "buffer": 0,
            "byteOffset": 45012,
            "byteLength": 240,
            "target": 34962
        },
        {
            "buffer": 0,
            "byteOffset": 45252,
            "byteLength": 240,
            "target": 34962
        },
        {
            "buffer": 0,
            "byteOffset": 45492,
            "byteLength": 160,
            "target": 34962
        },
        {
            "buffer": 0,
            "byteOffset": 45652,
            "byteLength": 312,
            "target": 34963
        },
        {
            "buffer": 0,
            "byteOffset": 45964,
            "byteLength": 2148,
            "target": 34962
        },
        {
            "buffer": 0,
            "byteOffset": 48112,
            "byteLength": 2148,
            "target": 34962
        },
        {
            "buffer": 0,
            "byteOffset": 50260,
            "byteLength": 1432,
            "target": 34962
        },
        {
            "buffer": 0,
            "byteOffset": 51692,
            "byteLength": 2952,
            "target": 34963
        },
        {
            "buffer": 0,
            "byteOffset": 54644,
            "byteLength": 240,
            "target": 34962
        },
        {
            "buffer": 0,
            "byteOffset": 54884,
            "byteLength": 240,
            "target": 34962
        },
        {
            "buffer": 0,
            "byteOffset": 55124,
            "byteLength": 160,
            "target": 34962
        },
        {
            "buffer": 0,
            "byteOffset": 55284,
            "byteLength": 216,
            "target": 34963
        },
        {
            "buffer": 0,
            "byteOffset": 55500,
            "byteLength": 228,
            "target": 34962
        },
        {
            "buffer": 0,
            "byteOffset": 55728,
            "byteLength": 228,
            "target": 34962
        },
        {
            "buffer": 0,
            "byteOffset": 55956,
            "byteLength": 152,
            "target": 34962
        },
        {
            "buffer": 0,
            "byteOffset": 56108,
            "byteLength": 216,
            "target": 34963
        },
        {
            "buffer": 0,
            "byteOffset": 56324,
            "byteLength": 240,
            "target": 34962
        },
        {
            "buffer": 0,
            "byteOffset": 56564,
            "byteLength": 240,
            "target": 34962
        },
        {
            "buffer": 0,
            "byteOffset": 56804,
            "byteLength": 160,
            "target": 34962
        },
        {
            "buffer": 0,
            "byteOffset": 56964,
            "byteLength": 312,
            "target": 34963
        },
        {
            "buffer": 0,
            "byteOffset": 57276,
            "byteLength": 2628,
            "target": 34962
        },
        {
            "buffer": 0,
            "byteOffset": 59904,
            "byteLength": 2628,
            "target": 34962
        },
        {
            "buffer": 0,
            "byteOffset": 62532,
            "byteLength": 1752,
            "target": 34962
        },
        {
            "buffer": 0,
            "byteOffset": 64284,
            "byteLength": 4272,
            "target": 34963
        },
        {
            "buffer": 0,
            "byteOffset": 68556,
            "byteLength": 3720,
            "target": 34962
        },
        {
            "buffer": 0,
            "byteOffset": 72276,
            "byteLength": 3720,
            "target": 34962
        },
        {
            "buffer": 0,
            "byteOffset": 75996,
            "byteLength": 2480,
            "target": 34962
        },
        {
            "buffer": 0,
            "byteOffset": 78476,
            "byteLength": 5088,
            "target": 34963
        }
    ],
    "images": [
        {
            "uri": "Boss_diffuse.png"
        },
        {
            "uri": "Boss_normal.png"
        }
    ],
    "materials": [
        {
            "name": "Clothes_MAT",
            "pbrMetallicRoughness": {
                "baseColorTexture": {
                    "index": 0
                },
                "metallicFactor": 0.0,
                "roughnessFactor": 0.9039230942726135
            },
            "normalTexture": {
                "index": 1
            },
            "extensions": {
                "KHR_materials_specular": {
                    "specularFactor": 1.0,
                    "specularColorFactor": [
                        0.5,
                        0.5,
                        0.5
                    ]
                }
            }
        },
        {
            "name": "Cigar_Mat",
            "pbrMetallicRoughness": {
                "baseColorTexture": {
                    "index": 0
                },
                "metallicFactor": 0.0,
                "roughnessFactor": 0.9445299506187439
            },
            "normalTexture": {
                "index": 1
            },
            "extensions": {
                "KHR_materials_specular": {
                    "specularFactor": 1.0,
                    "specularColorFactor": [
                        0.5,
                        0.5,
                        0.5
                    ]
                }
            }
        },
        {
            "name": "Skin_MAT",
            "pbrMetallicRoughness": {
                "baseColorTexture": {
                    "index": 0
                },
                "metallicFactor": 0.0,
                "roughnessFactor": 0.9411650896072388
            },
            "normalTexture": {
                "index": 1
            },
            "extensions": {
                "KHR_materials_specular": {
                    "specularFactor": 1.0,
                    "specularColorFactor": [
                        0.5,
                        0.5,
                        0.5
                    ]
                }
            }
        },
        {
            "name": "Eyes_MAT",
            "pbrMetallicRoughness": {
                "baseColorTexture": {
                    "index": 0
                },
                "metallicFactor": 0.0,
                "roughnessFactor": 0.8468283414840698
            },
            "normalTexture": {
                "index": 1
            },
            "extensions": {
                "KHR_materials_specular": {
                    "specularFactor": 1.0,
                    "specularColorFactor": [
                        0.5,
                        0.5,
                        0.5
                    ]
                }
            }
        }
    ],
    "meshes": [
        {
            "primitives": [
                {
                    "mode": 4,
                    "material": 0,
                    "indices": 3,
                    "attributes": {
                        "POSITION": 0,
                        "NORMAL": 1,
                        "TEXCOORD_0": 2
                    }
                },
                {
                    "mode": 4,
                    "material": 0,
                    "indices": 7,
                    "attributes": {
                        "POSITION": 4,
                        "NORMAL": 5,
                        "TEXCOORD_0": 6
                    }
                },
                {
                    "mode": 4,
                    "material": 1,
                    "indices": 11,
                    "attributes": {
                        "POSITION": 8,
                        "NORMAL": 9,
                        "TEXCOORD_0": 10
                    }
                },
                {
                    "mode": 4,
                    "material": 2,
                    "indices": 15,
                    "attributes": {
                        "POSITION": 12,
                        "NORMAL": 13,
                        "TEXCOORD_0": 14
                    }
                },
                {
                    "mode": 4,
                    "material": 2,
                    "indices": 19,
                    "attributes": {
                        "POSITION": 16,
                        "NORMAL": 17,
                        "TEXCOORD_0": 18
                    }
                },
                {
                    "mode": 4,
                    "material": 0,
                    "indices": 23,
                    "attributes": {
                        "POSITION": 20,
                        "NORMAL": 21,
                        "TEXCOORD_0": 22
                    }
                },
                {
                    "mode": 4,
                    "material": 3,
                    "indices": 27,
                    "attributes": {
                        "POSITION": 24,
                        "NORMAL": 25,
                        "TEXCOORD_0": 26
                    }
                },
                {
                    "mode": 4,
                    "material": 3,
                    "indices": 31,
                    "attributes": {
                        "POSITION": 28,
                        "NORMAL": 29,
                        "TEXCOORD_0": 30
                    }
                },
                {
                    "mode": 4,
                    "material": 2,
                    "indices": 35,
                    "attributes": {
                        "POSITION": 32,
                        "NORMAL": 33,
                        "TEXCOORD_0": 34
                    }
                },
                {
                    "mode": 4,
                    "material": 0,
                    "indices": 39,
                    "attributes": {
                        "POSITION": 36,
                        "NORMAL": 37,
                        "TEXCOORD_0": 38
                    }
                },
                {
                    "mode": 4,
                    "material": 2,
                    "indices": 43,
                    "attributes": {
                        "POSITION": 40,
                        "NORMAL": 41,
                        "TEXCOORD_0": 42
                    }
                }
            ]
        }
    ],
    "nodes": [
        {
            "name": "Jump",
            "children": [
                1,
                71
            ]
        },
        {
            "name": "RootNode",
            "children": [
                2,
                3
            ]
        },
        {
            "name": "mixamorig:Meshes"
        },
        {
            "name": "mixamorig:Hips",
            "matrix": [
                1.0,
                0.0000016410348280260223,
                1.2360266055111424e-7,
                0.0,
                -0.0000016410348280260223,
                1.0,
                -0.0,
                0.0,
                -1.2360266055111424e-7,
                -2.028362693735561e-13,
                1.0,
                -0.0,
                -1.7034949451044668e-8,
                0.9637582302093506,
                -0.00035750045208260417,
                1.0
            ],
            "children": [
                4,
                61,
                66
            ]
        },
        {
            "name": "mixamorig:Spine",
            "matrix": [
                1.0,
                -0.0000016410348280260223,
                -1.2360266055111424e-7,
                0.0,
                0.0000016396902537962887,
                0.9999480247497559,
                -0.01018802635371685,
                0.0,
                1.4031515149781626e-7,
                0.01018802635371685,
                0.9999480247497559,
                -0.0,
                1.7926208784047049e-7,
                0.09226322174072266,
                0.015771327540278435,
                1.0
            ],
            "children": [
                5
            ]
        },
        {
            "name": "mixamorig:Spine1",
            "matrix": [
                1.0,
                -6.957722429885155e-14,
                -1.2406717736230654e-14,
                0.0,
                6.828595306394847e-14,
                0.9964511394500732,
                -0.08417633920907974,
                0.0,
                1.8219443220280664e-14,
                0.08417633920907974,
                0.9964511394500732,
                -0.0,
                -4.796163466380676e-14,
                0.16254866123199463,
                -0.0,
                1.0
            ],
            "children": [
                6
            ]
        },
        {
            "name": "mixamorig:Spine2",
            "matrix": [
                1.0,
                1.1981984207056234e-20,
                3.888951683620413e-21,
                0.0,
                -1.2295382261637262e-20,
                0.9955414533615112,
                0.09432380646467209,
                0.0,
                -2.7414263957074023e-21,
                -0.09432380646467209,
                0.9955414533615112,
                -0.0,
                -6.217248937900877e-15,
                0.13700735569000244,
                -0.0,
                1.0
            ],
            "children": [
                7,
                13,
                37
            ]
        },
        {
            "name": "mixamorig:Neck",
            "matrix": [
                1.0,
                1.1406120280401674e-28,
                -5.553580772755923e-28,
                0.0,
                -1.1406120280401674e-28,
                1.0,
                -1.7575967348193444e-8,
                0.0,
                5.553580772755923e-28,
                1.7575967348193444e-8,
                1.0,
                -0.0,
                -2.4868995751603507e-14,
                0.13877439498901367,
                -0.043541859835386276,
                1.0
            ],
            "children": [
                8
            ]
        },
        {
            "name": "mixamorig:Neck1",
            "matrix": [
                1.0,
                -1.0247975929300252e-37,
                1.5777218104420236e-30,
                0.0,
                1.0247975929300252e-37,
                1.0,
                3.899331419278222e-15,
                0.0,
                -1.5777218104420236e-30,
                -3.899331419278222e-15,
                1.0,
                -0.0,
                6.217248937900877e-15,
                0.04340028762817383,
                0.009268950670957565,
                1.0
            ],
            "children": [
                9
            ]
        },
        {
            "name": "mixamorig:Head",
            "matrix": [
                1.0,
                7.347063900393589e-40,
                -0.0,
                0.0,
                -7.347063900393589e-40,
                1.0,
                -8.900463391070578e-22,
                0.0,
                -0.0,
                8.900463391070578e-22,
                1.0,
                -0.0,
                5.3290705182007514e-15,
                0.04026603698730469,
                0.008585195988416672,
                1.0
            ],
            "children": [
                10,
                11,
                12
            ]
        },
        {
            "name": "mixamorig:HeadTop_End",
            "matrix": [
                1.0,
                7.346839692639297e-40,
                -0.0,
                0.0,
                -7.346839692639297e-40,
                1.0,
                -0.0,
                0.0,
                -0.0,
                -0.0,
                1.0,
                -0.0,
                0.0000941258913371712,
                0.3840515613555908,
                0.09587807208299637,
                1.0
            ]
        },
        {
            "name": "mixamorig:LeftEye",
            "matrix": [
                0.0000021457672119140625,
                0.0,
                -1.0,
                0.0,
                1.0,
                0.0,
                0.0000021457672119140625,
                0.0,
                -0.0,
                -1.0,
                0.0,
                -0.0,
                0.05090055987238884,
                0.16230380535125732,
                0.13786211609840393,
                1.0
            ]
        },
        {
            "name": "mixamorig:RightEye",
            "matrix": [
                0.000016629695892333984,
                -0.0000021457672119140625,
                1.0,
                0.0,
                -1.0,
                -2.384185791015625e-7,
                0.00001665949821472168,
                0.0,
                2.086162567138672e-7,
                -1.0,
                -0.0000021457672119140625,
                -0.0,
                -0.05090082064270973,
                0.16230392456054688,
                0.13786211609840393,
                1.0
            ]
        },
        {
            "name": "mixamorig:LeftShoulder",
            "matrix": [
                -0.13935957849025726,
                1.7881392011531716e-7,
                -0.9902419447898865,
                0.0,
                0.9865309596061707,
                -0.08649588376283646,
                -0.13883717358112335,
                0.0,
                -0.08565172553062439,
                -0.9962523579597473,
                0.01205366849899292,
                -0.0,
                0.06144233047962189,
                0.10187005996704102,
                -0.037932369858026505,
                1.0
            ],
            "children": [
                14
            ]
        },
        {
            "name": "mixamorig:LeftArm",
            "matrix": [
                0.990241527557373,
                0.13883744180202484,
                -0.012053919956088066,
                0.0,
                -0.13935969769954681,
                0.986530065536499,
                -0.08565166592597961,
                0.0,
                -1.0430809993522416e-7,
                0.08649571985006332,
                0.9962519407272339,
                -0.0,
                8.754432201385498e-8,
                0.12465986609458923,
                -0.0,
                1.0
            ],
            "children": [
                15
            ]
        },
        {
            "name": "mixamorig:LeftForeArm",
            "matrix": [
                0.9999997615814209,
                2.980232238769531e-7,
                5.960459148468544e-8,
                0.0,
                -2.980233659855003e-7,
                1.0,
                6.556509788424592e-7,
                0.0,
                -5.960439963814679e-8,
                -6.556509219990403e-7,
                0.9999998807907104,
                -0.0,
                2.60770320892334e-7,
                0.2768700122833252,
                -1.1920928955078125e-7,
                1.0
            ],
            "children": [
                16
            ]
        },
        {
            "name": "mixamorig:LeftHand",
            "matrix": [
                1.0000001192092896,
                -5.960437121643736e-8,
                1.1920950271360198e-7,
                0.0,
                5.960436411101e-8,
                1.0,
                6.039611898708136e-14,
                0.0,
                -1.1920948850274726e-7,
                -5.329071534640288e-14,
                1.0,
                -0.0,
                1.341104507446289e-7,
                0.2789478600025177,
                -3.5762786865234375e-7,
                1.0
            ],
            "children": [
                17,
                21,
                25,
                29,
                33
            ]
        },
        {
            "name": "mixamorig:LeftHandThumb1",
            "matrix": [
                0.8599143624305725,
                0.5099078416824341,
                -0.02327537350356579,
                0.0,
                -0.44721242785453796,
                0.774597704410553,
                0.44721242785453796,
                0.0,
                0.24606618285179138,
                -0.3741553723812103,
                0.8941248059272766,
                -0.0,
                -0.023300660774111748,
                0.024210453033447266,
                0.014296293258666992,
                1.0
            ],
            "children": [
                18
            ]
        },
        {
            "name": "mixamorig:LeftHandThumb2",
            "matrix": [
                0.9999998807907104,
                -0.00047966750571504235,
                0.0000035945704439654946,
                0.0,
                0.00047910824650898576,
                0.9991438984870911,
                0.04136675223708153,
                0.0,
                -0.00002343377491342835,
                -0.04136674106121063,
                0.9991438984870911,
                -0.0,
                -5.960464477539063e-8,
                0.04513922333717346,
                -2.384185791015625e-7,
                1.0
            ],
            "children": [
                19
            ]
        },
        {
            "name": "mixamorig:LeftHandThumb3",
            "matrix": [
                0.9999988675117493,
                -0.001579750096425414,
                0.00007711653597652912,
                0.0,
                0.001549112144857645,
                0.9881097078323364,
                0.1537417620420456,
                0.0,
                -0.00031907318043522537,
                -0.1537414938211441,
                0.9881111979484558,
                -0.0,
                1.7881393432617188e-7,
                0.051786698400974274,
                3.5762786865234375e-7,
                1.0
            ],
            "children": [
                20
            ]
        },
        {
            "name": "mixamorig:LeftHandThumb4",
            "matrix": [
                0.9999998807907104,
                -2.9561602943317666e-8,
                -1.0764192381884641e-7,
                0.0,
                2.9561602943317666e-8,
                0.9999998807907104,
                1.3882381466601146e-8,
                0.0,
                1.0764190960799169e-7,
                -1.3882383242957985e-8,
                0.9999997615814209,
                -0.0,
                2.9802322387695313e-8,
                0.031334444880485535,
                -0.0,
                1.0
            ]
        },
        {
            "name": "mixamorig:LeftHandIndex1",
            "matrix": [
                1.0000001192092896,
                -2.3841856489070778e-7,
                -2.3841825225190405e-7,
                0.0,
                2.384183943604512e-7,
                1.0,
                -5.662438979925355e-7,
                0.0,
                2.3841836593874177e-7,
                5.662438979925355e-7,
                1.0,
                -0.0,
                -0.02202184870839119,
                0.10514819622039795,
                0.002655029296875,
                1.0
            ],
            "children": [
                22
            ]
        },
        {
            "name": "mixamorig:LeftHandIndex2",
            "matrix": [
                0.9999999403953552,
                2.309264060626915e-14,
                1.1920921849650767e-7,
                0.0,
                -2.3092642300335045e-14,
                1.0,
                -1.3764280344172587e-21,
                0.0,
                -1.1920922560193503e-7,
                -1.3764280344172587e-21,
                1.0,
                -0.0,
                7.82310962677002e-8,
                0.05549287796020508,
                -1.1920928955078125e-7,
                1.0
            ],
            "children": [
                23
            ]
        },
        {
            "name": "mixamorig:LeftHandIndex3",
            "matrix": [
                0.9992513060569763,
                -0.03869226574897766,
                1.1665908061786467e-7,
                0.0,
                0.038692254573106766,
                0.9992510676383972,
                0.0008602330926805735,
                0.0,
                -0.00003340092735015787,
                -0.000859584310092032,
                0.9999997615814209,
                -0.0,
                -1.4901161193847656e-8,
                0.033911049365997314,
                -1.1920928955078125e-7,
                1.0
            ],
            "children": [
                24
            ]
        },
        {
            "name": "mixamorig:LeftHandIndex4",
            "matrix": [
                0.9999998211860657,
                1.6984632367211816e-8,
                -6.277073794080934e-8,
                0.0,
                -1.6984628814498137e-8,
                0.9999997615814209,
                5.649017964515224e-8,
                0.0,
                6.27707450462367e-8,
                -5.6490186750579596e-8,
                0.9999998807907104,
                -0.0,
                1.30385160446167e-8,
                0.025902628898620605,
                -0.0,
                1.0
            ]
        },
        {
            "name": "mixamorig:LeftHandMiddle1",
            "matrix": [
                0.9925826787948608,
                -0.12157226353883743,
                1.3154932787529106e-7,
                0.0,
                0.1215568408370018,
                0.9924567937850952,
                -0.01592773012816906,
                0.0,
                0.0019362395396456122,
                0.01580960489809513,
                0.9998732805252075,
                -0.0,
                0.0006274320185184479,
                0.10490787029266357,
                0.0003472566604614258,
                1.0
            ],
            "children": [
                26
            ]
        },
        {
            "name": "mixamorig:LeftHandMiddle2",
            "matrix": [
                0.9999998807907104,
                -3.629937239679748e-8,
                -1.6856061790804233e-7,
                0.0,
                3.629950029448992e-8,
                0.9999998807907104,
                7.565167265966011e-7,
                0.0,
                1.685605894863329e-7,
                -7.565167265966011e-7,
                0.9999998807907104,
                -0.0,
                -1.2293457984924316e-7,
                0.058053791522979736,
                -1.1920928955078125e-7,
                1.0
            ],
            "children": [
                27
            ]
        },
        {
            "name": "mixamorig:LeftHandMiddle3",
            "matrix": [
                1.0000001192092896,
                -0.00016804384358692914,
                -0.000002544260269132792,
                0.0,
                0.00016804384358692914,
                1.0000001192092896,
                0.000003210072236470296,
                0.0,
                0.0000025437209387746407,
                -0.0000032104996989801293,
                1.0000001192092896,
                -0.0,
                2.2351741790771484e-8,
                0.036820173263549805,
                2.384185791015625e-7,
                1.0
            ],
            "children": [
                28
            ]
        },
        {
            "name": "mixamorig:LeftHandMiddle4",
            "matrix": [
                1.0000001192092896,
                -1.5508176431922038e-7,
                -4.9066567697764185e-8,
                0.0,
                1.5508175010836567e-7,
                1.0,
                2.3541129934301352e-8,
                0.0,
                4.906655348690947e-8,
                -2.354113703972871e-8,
                1.0,
                -0.0,
                2.60770320892334e-8,
                0.01995062828063965,
                -0.0,
                1.0
            ]
        },
        {
            "name": "mixamorig:LeftHandRing1",
            "matrix": [
                0.9773920774459839,
                -0.21143439412117004,
                6.50761577958292e-8,
                0.0,
                0.21140064299106598,
                0.9772359728813171,
                -0.01787414215505123,
                0.0,
                0.003779145423322916,
                0.017470059916377068,
                0.9998401403427124,
                -0.0,
                0.02376890927553177,
                0.10240721702575684,
                0.0008130073547363281,
                1.0
            ],
            "children": [
                30
            ]
        },
        {
            "name": "mixamorig:LeftHandRing2",
            "matrix": [
                1.0,
                -7.448728922554437e-8,
                4.953845333943718e-8,
                0.0,
                7.448730343639909e-8,
                1.0,
                -2.7857572604261804e-7,
                0.0,
                -4.953843202315511e-8,
                2.7857572604261804e-7,
                1.0,
                -0.0,
                -2.9802322387695313e-8,
                0.054189324378967285,
                -1.1920928955078125e-7,
                1.0
            ],
            "children": [
                31
            ]
        },
        {
            "name": "mixamorig:LeftHandRing3",
            "matrix": [
                1.0000001192092896,
                -8.938845752481939e-8,
                1.8786208144661032e-8,
                0.0,
                8.938845752481939e-8,
                1.0000001192092896,
                -6.914456918138967e-8,
                0.0,
                -1.8786199262876835e-8,
                6.914456207596231e-8,
                1.0,
                -0.0,
                7.450580596923828e-9,
                0.037279367446899414,
                -0.0,
                1.0
            ],
            "children": [
                32
            ]
        },
        {
            "name": "mixamorig:LeftHandRing4",
            "matrix": [
                1.0000001192092896,
                -7.44872679092623e-8,
                -4.0330139228217377e-8,
                0.0,
                7.448726080383494e-8,
                1.0,
                -1.035482632971707e-8,
                0.0,
                4.03301356755037e-8,
                1.0354822777003392e-8,
                1.0,
                -0.0,
                7.450580596923828e-9,
                0.016804635524749756,
                -1.1920928955078125e-7,
                1.0
            ]
        },
        {
            "name": "mixamorig:LeftHandPinky1",
            "matrix": [
                0.926513135433197,
                -0.3762628436088562,
                4.2538164279903867e-7,
                0.0,
                0.376237154006958,
                0.9264499545097351,
                0.01167803443968296,
                0.0,
                -0.004394403658807278,
                -0.010819689370691776,
                0.999931812286377,
                -0.0,
                0.0448116809129715,
                0.09820246696472168,
                0.0024559497833251953,
                1.0
            ],
            "children": [
                34
            ]
        },
        {
            "name": "mixamorig:LeftHandPinky2",
            "matrix": [
                1.0,
                -2.8725889933411963e-7,
                -3.838850091142376e-7,
                0.0,
                2.872591267077951e-7,
                1.0,
                5.521831667465449e-7,
                0.0,
                3.838848954273999e-7,
                -5.521833372768015e-7,
                1.0000001192092896,
                -0.0,
                2.9802322387695313e-8,
                0.03684478998184204,
                -1.1920928955078125e-7,
                1.0
            ],
            "children": [
                35
            ]
        },
        {
            "name": "mixamorig:LeftHandPinky3",
            "matrix": [
                0.9988486766815186,
                0.04797109588980675,
                -0.0005601791781373322,
                0.0,
                -0.04797181487083435,
                0.998848021030426,
                -0.0013484477531164885,
                0.0,
                0.000494847190566361,
                0.0013737675035372376,
                0.999998927116394,
                -0.0,
                8.940696716308594e-8,
                0.02815181016921997,
                5.960464477539063e-7,
                1.0
            ],
            "children": [
                36
            ]
        },
        {
            "name": "mixamorig:LeftHandPinky4",
            "matrix": [
                1.0,
                -1.671922262858061e-7,
                8.242737159491753e-9,
                0.0,
                1.6719221207495139e-7,
                0.9999999403953552,
                -3.455002328678347e-8,
                0.0,
                -8.242732718599655e-9,
                3.455003039221083e-8,
                1.0000001192092896,
                -0.0,
                -1.4901161193847656e-8,
                0.021532773971557617,
                -3.5762786865234375e-7,
                1.0
            ]
        },
        {
            "name": "mixamorig:RightShoulder",
            "matrix": [
                -0.1393601894378662,
                -1.7881393432617188e-7,
                0.9902418851852417,
                0.0,
                -0.9865321516990662,
                -0.08647571504116058,
                -0.138837993144989,
                0.0,
                0.08563186973333359,
                -0.9962539076805115,
                0.012051044963300228,
                -0.0,
                -0.06144244596362114,
                0.10187149047851563,
                -0.037932317703962326,
                1.0
            ],
            "children": [
                38
            ]
        },
        {
            "name": "mixamorig:RightArm",
            "matrix": [
                0.9902413487434387,
                -0.13883832097053528,
                0.012051156722009182,
                0.0,
                0.13936039805412292,
                0.9865320920944214,
                -0.08563186228275299,
                0.0,
                1.2991947073714982e-7,
                0.0864756852388382,
                0.9962537288665771,
                -0.0,
                -1.2665987014770508e-7,
                0.12465941905975342,
                -3.5762786865234375e-7,
                1.0
            ],
            "children": [
                39
            ]
        },
        {
            "name": "mixamorig:RightForeArm",
            "matrix": [
                1.0,
                -2.3841863594498136e-7,
                2.3841863594498136e-7,
                0.0,
                2.3841863594498136e-7,
                1.0,
                1.1920921849650767e-7,
                0.0,
                -2.3841860752327193e-7,
                -1.192091474422341e-7,
                0.9999998807907104,
                -0.0,
                -5.21540641784668e-8,
                0.27687013149261475,
                -0.0,
                1.0
            ],
            "children": [
                40
            ]
        },
        {
            "name": "mixamorig:RightHand",
            "matrix": [
                1.0,
                -1.192093463942001e-7,
                -5.960457372111705e-8,
                0.0,
                1.192093463942001e-7,
                1.0,
                1.788137637959153e-7,
                0.0,
                5.960454529940762e-8,
                -1.7881374958506058e-7,
                0.9999998807907104,
                -0.0,
                -6.705522537231445e-8,
                0.278948038816452,
                1.1920928955078125e-7,
                1.0
            ],
            "children": [
                41,
                45,
                49,
                53,
                57
            ]
        },
        {
            "name": "mixamorig:RightHandThumb1",
            "matrix": [
                0.8613848090171814,
                -0.507638692855835,
                0.01787612959742546,
                0.0,
                0.44719749689102173,
                0.7745755910873413,
                0.4472658932209015,
                0.0,
                -0.24089595675468445,
                -0.3772740066051483,
                0.8942225575447083,
                -0.0,
                0.023300284519791603,
                0.024209916591644287,
                0.014299750328063965,
                1.0
            ],
            "children": [
                42
            ]
        },
        {
            "name": "mixamorig:RightHandThumb2",
            "matrix": [
                0.9999998211860657,
                0.0007338528521358967,
                -0.0000059441345001687296,
                0.0,
                -0.0007329838117584586,
                0.9991496801376343,
                0.04122089594602585,
                0.0,
                0.00003618913979153149,
                -0.04122087359428406,
                0.9991497993469238,
                -0.0,
                0.0,
                0.045140884816646576,
                1.1920928955078125e-7,
                1.0
            ],
            "children": [
                43
            ]
        },
        {
            "name": "mixamorig:RightHandThumb3",
            "matrix": [
                0.9999966025352478,
                0.0025152864400297403,
                -0.0001238326367456466,
                0.0,
                -0.0024662159848958254,
                0.9880689978599548,
                0.1539900004863739,
                0.0,
                0.0005096842651255429,
                -0.15398922562599182,
                0.9880722761154175,
                -0.0,
                8.940696716308594e-8,
                0.05178462713956833,
                -0.0,
                1.0
            ],
            "children": [
                44
            ]
        },
        {
            "name": "mixamorig:RightHandThumb4",
            "matrix": [
                0.9999998211860657,
                -1.4483883603588765e-7,
                2.0858736604623118e-7,
                0.0,
                1.4483885024674237e-7,
                0.9999997019767761,
                -7.94751784383152e-8,
                0.0,
                -2.0858730920281232e-7,
                7.947519264916991e-8,
                0.9999995231628418,
                -0.0,
                0.0,
                0.03133855760097504,
                -1.1920928955078125e-7,
                1.0
            ]
        },
        {
            "name": "mixamorig:RightHandIndex1",
            "matrix": [
                1.0000001192092896,
                2.980231101901154e-7,
                -2.384187496318191e-7,
                0.0,
                -2.9802313861182483e-7,
                1.0,
                -1.1920923270736239e-7,
                0.0,
                2.3841872121010965e-7,
                1.192093321833454e-7,
                1.000000238418579,
                -0.0,
                0.022021733224391937,
                0.10514789819717407,
                0.0026596784591674805,
                1.0
            ],
            "children": [
                46
            ]
        },
        {
            "name": "mixamorig:RightHandIndex2",
            "matrix": [
                0.9999997615814209,
                -1.192092469182171e-7,
                1.1920930376163597e-7,
                0.0,
                1.1920926112907182e-7,
                0.9999998807907104,
                7.105428204633949e-15,
                0.0,
                -1.1920931797249068e-7,
                7.105428204633949e-15,
                0.9999998807907104,
                -0.0,
                -2.2351741790771484e-8,
                0.05549299716949463,
                -2.384185791015625e-7,
                1.0
            ],
            "children": [
                47
            ]
        },
        {
            "name": "mixamorig:RightHandIndex3",
            "matrix": [
                0.9992509484291077,
                0.038695305585861206,
                4.22505728181477e-8,
                0.0,
                -0.03869529068470001,
                0.9992507100105286,
                0.0007722561131231487,
                0.0,
                0.00002984046659548767,
                -0.0007716793334111571,
                0.9999995827674866,
                -0.0,
                4.842877388000488e-8,
                0.033910930156707764,
                -0.0,
                1.0
            ],
            "children": [
                48
            ]
        },
        {
            "name": "mixamorig:RightHandIndex4",
            "matrix": [
                1.0,
                -7.017294478828262e-8,
                1.329784993231442e-7,
                0.0,
                7.017293768285526e-8,
                0.9999998807907104,
                -4.9872216578705775e-8,
                0.0,
                -1.329784993231442e-7,
                4.987223078956049e-8,
                1.0,
                -0.0,
                -1.6763806343078613e-8,
                0.025902390480041504,
                2.384185791015625e-7,
                1.0
            ]
        },
        {
            "name": "mixamorig:RightHandMiddle1",
            "matrix": [
                0.9925825595855713,
                0.12157336622476578,
                -2.7305216576678504e-7,
                0.0,
                -0.12155809253454208,
                0.9924578070640564,
                -0.01584724895656109,
                0.0,
                -0.001926332712173462,
                0.015729738399386406,
                0.9998746514320374,
                -0.0,
                -0.0006275661289691925,
                0.10490810871124268,
                0.00035011768341064453,
                1.0
            ],
            "children": [
                50
            ]
        },
        {
            "name": "mixamorig:RightHandMiddle2",
            "matrix": [
                0.9999998211860657,
                -5.880313551642757e-7,
                3.373093804270866e-8,
                0.0,
                5.88037380566675e-7,
                1.0,
                -0.00017678868607617915,
                0.0,
                -3.3626982087753277e-8,
                0.00017678867152426392,
                0.9999999403953552,
                -0.0,
                1.1175870895385742e-7,
                0.05805349349975586,
                -5.960464477539063e-7,
                1.0
            ],
            "children": [
                51
            ]
        },
        {
            "name": "mixamorig:RightHandMiddle3",
            "matrix": [
                0.9999998807907104,
                0.00016310770297423005,
                0.0000026315037757740356,
                0.0,
                -0.00016310765931848437,
                0.9999998211860657,
                -0.000015394121874123812,
                0.0,
                -0.0000026340142085246043,
                0.000015393692592624575,
                0.9999998211860657,
                -0.0,
                -5.960464477539063e-8,
                0.036820054054260254,
                1.1920928955078125e-7,
                1.0
            ],
            "children": [
                52
            ]
        },
        {
            "name": "mixamorig:RightHandMiddle4",
            "matrix": [
                1.000000238418579,
                -9.192040550942693e-8,
                1.5980672785076422e-8,
                0.0,
                9.192040550942693e-8,
                1.000000238418579,
                2.6707120071023382e-8,
                0.0,
                -1.59806763377901e-8,
                -2.6707120071023382e-8,
                1.000000238418579,
                -0.0,
                -2.2351741790771484e-8,
                0.01995086669921875,
                -0.0,
                1.0
            ]
        },
        {
            "name": "mixamorig:RightHandRing1",
            "matrix": [
                0.9773922562599182,
                0.21143466234207153,
                -4.183967234894226e-7,
                0.0,
                -0.2114008069038391,
                0.9772356748580933,
                -0.01790028065443039,
                0.0,
                -0.0037843305617570877,
                0.017495684325695038,
                0.9998401403427124,
                -0.0,
                -0.02376880869269371,
                0.10240668058395386,
                0.0008194446563720703,
                1.0
            ],
            "children": [
                54
            ]
        },
        {
            "name": "mixamorig:RightHandRing2",
            "matrix": [
                0.999999463558197,
                -0.000003676119149531587,
                1.3055611702839087e-7,
                0.0,
                0.000003676128926599631,
                0.9999995231628418,
                -0.00007191190525190905,
                0.0,
                -1.3029176670897868e-7,
                0.00007191190525190905,
                0.999999463558197,
                -0.0,
                -2.5331974029541016e-7,
                0.05418974161148071,
                3.5762786865234375e-7,
                1.0
            ],
            "children": [
                55
            ]
        },
        {
            "name": "mixamorig:RightHandRing3",
            "matrix": [
                1.0000001192092896,
                0.00000419413572672056,
                1.4604218279146153e-7,
                0.0,
                -0.000004194153007119894,
                1.0000001192092896,
                0.00011995462409686297,
                0.0,
                -1.4553906169112452e-7,
                -0.00011995462409686297,
                1.0000001192092896,
                -0.0,
                1.043081283569336e-7,
                0.03727990388870239,
                -1.1920928955078125e-7,
                1.0
            ],
            "children": [
                56
            ]
        },
        {
            "name": "mixamorig:RightHandRing4",
            "matrix": [
                1.0,
                4.8706763067229986e-8,
                4.168057898823463e-8,
                0.0,
                -4.870677017265734e-8,
                1.0000001192092896,
                -2.7073616237771603e-8,
                0.0,
                -4.168058254094831e-8,
                2.7073612685057924e-8,
                1.0000001192092896,
                -0.0,
                -7.450580596923828e-9,
                0.016804516315460205,
                -1.1920928955078125e-7,
                1.0
            ]
        },
        {
            "name": "mixamorig:RightHandPinky1",
            "matrix": [
                0.9265161752700806,
                0.3762553632259369,
                -3.8882723174538114e-7,
                0.0,
                -0.37622976303100586,
                0.926453173160553,
                0.011670827865600586,
                0.0,
                0.00439157010987401,
                -0.010813063941895962,
                0.9999322295188904,
                -0.0,
                -0.044811833649873734,
                0.09820204973220825,
                0.0024597644805908203,
                1.0
            ],
            "children": [
                58
            ]
        },
        {
            "name": "mixamorig:RightHandPinky2",
            "matrix": [
                0.9999992251396179,
                0.000019522000002325512,
                1.8061977868910617e-7,
                0.0,
                -0.000019522012735251337,
                0.9999993443489075,
                0.00005150483411853202,
                0.0,
                -1.796143465071509e-7,
                -0.000051504837756510824,
                0.999999463558197,
                -0.0,
                -1.1920928955078125e-7,
                0.036844491958618164,
                -0.0,
                1.0
            ],
            "children": [
                59
            ]
        },
        {
            "name": "mixamorig:RightHandPinky3",
            "matrix": [
                0.9988483190536499,
                -0.04798911511898041,
                0.0005625183694064617,
                0.0,
                0.047989893704652786,
                0.9988470673561096,
                -0.0014917113585397601,
                0.0,
                -0.0004902835935354233,
                0.0015169874532148242,
                0.9999989867210388,
                -0.0,
                1.341104507446289e-7,
                0.028151631355285645,
                -0.0,
                1.0
            ],
            "children": [
                60
            ]
        },
        {
            "name": "mixamorig:RightHandPinky4",
            "matrix": [
                0.9999996423721313,
                -1.5826046251277148e-7,
                9.45881328817677e-9,
                0.0,
                1.582604909344809e-7,
                0.9999998211860657,
                5.141329850744114e-8,
                0.0,
                -9.458823058139387e-9,
                -5.141329850744114e-8,
                0.9999997615814209,
                -0.0,
                2.9802322387695313e-8,
                0.021532952785491943,
                2.384185791015625e-7,
                1.0
            ]
        },
        {
            "name": "mixamorig:LeftUpLeg",
            "matrix": [
                -0.9999988079071045,
                -0.0015736542409285903,
                -0.0,
                0.0,
                0.0015735762426629663,
                -0.9999492168426514,
                -0.009961268864572048,
                0.0,
                0.000015675592294428498,
                -0.009961255826056004,
                0.9999504089355469,
                -0.0,
                0.09633781760931015,
                -0.03273278474807739,
                -2.2497260943055153e-8,
                1.0
            ],
            "children": [
                62
            ]
        },
        {
            "name": "mixamorig:LeftLeg",
            "matrix": [
                1.0,
                -0.0002308292459929362,
                -0.0000022994636310613714,
                0.0,
                0.00023044903355184942,
                0.9988337159156799,
                -0.04828156903386116,
                0.0,
                0.000013441579540085513,
                0.04828156903386116,
                0.9988337755203247,
                -0.0,
                -2.2351741790771484e-8,
                0.4183451533317566,
                9.313225746154785e-10,
                1.0
            ],
            "children": [
                63
            ]
        },
        {
            "name": "mixamorig:LeftFoot",
            "matrix": [
                0.9994340538978577,
                -0.01612560637295246,
                -0.029525306075811386,
                0.0,
                0.03100120648741722,
                0.7822991609573364,
                0.6221311688423157,
                0.0,
                0.013065376318991184,
                -0.6226942539215088,
                0.7823561429977417,
                -0.0,
                0.0,
                0.38943231105804443,
                3.725290298461914e-9,
                1.0
            ],
            "children": [
                64
            ]
        },
        {
            "name": "mixamorig:LeftToeBase",
            "matrix": [
                0.9928606152534485,
                0.08144022524356842,
                0.08714033663272858,
                0.0,
                -0.11810800433158875,
                0.5694631934165955,
                0.8134875297546387,
                0.0,
                0.016627391800284386,
                -0.8179718852043152,
                0.5750164985656738,
                -0.0,
                2.2351741790771484e-8,
                0.1519998461008072,
                9.313225746154785e-8,
                1.0
            ],
            "children": [
                65
            ]
        },
        {
            "name": "mixamorig:LeftToe_End",
            "matrix": [
                1.0,
                -5.5251437203196474e-8,
                -7.086047304483145e-8,
                0.0,
                5.525139812334601e-8,
                0.9999997019767761,
                -3.282432032847282e-7,
                0.0,
                7.08605156773956e-8,
                3.2824340223669424e-7,
                1.0000003576278687,
                -0.0,
                2.2351741790771484e-8,
                0.18499994277954102,
                6.373738870024681e-8,
                1.0
            ]
        },
        {
            "name": "mixamorig:RightUpLeg",
            "matrix": [
                -0.9999988079071045,
                0.0015769741730764508,
                -9.094947017729282e-13,
                0.0,
                -0.0015768959419801831,
                -0.9999492168426514,
                -0.009961268864572048,
                0.0,
                -0.00001570866515976377,
                -0.009961255826056004,
                0.9999504089355469,
                -0.0,
                -0.0963379368185997,
                -0.03273212909698486,
                -1.4551915228366852e-10,
                1.0
            ],
            "children": [
                67
            ]
        },
        {
            "name": "mixamorig:RightLeg",
            "matrix": [
                1.0000001192092896,
                0.00023082600091584027,
                0.0000022994383925833972,
                0.0,
                -0.0002304457884747535,
                0.9988338947296143,
                -0.048281338065862656,
                0.0,
                -0.000013441343071463052,
                0.048281338065862656,
                0.9988338947296143,
                -0.0,
                2.2351741790771484e-8,
                0.4183451533317566,
                4.6566128730773926e-9,
                1.0
            ],
            "children": [
                68
            ]
        },
        {
            "name": "mixamorig:RightFoot",
            "matrix": [
                0.9994335174560547,
                0.016128037124872208,
                0.02952371910214424,
                0.0,
                -0.03100215457379818,
                0.7822973728179932,
                0.6221327185630798,
                0.0,
                -0.0130625544115901,
                -0.6226959228515625,
                0.7823545932769775,
                -0.0,
                -2.2351741790771484e-8,
                0.38943296670913696,
                -1.4901161193847656e-8,
                1.0
            ],
            "children": [
                69
            ]
        },
        {
            "name": "mixamorig:RightToeBase",
            "matrix": [
                0.9928615093231201,
                -0.0814395621418953,
                -0.08714044839143753,
                0.0,
                0.11810769140720367,
                0.5694652795791626,
                0.8134863972663879,
                0.0,
                -0.0166265070438385,
                -0.8179711103439331,
                0.5750186443328857,
                -0.0,
                0.0,
                0.15199998021125793,
                1.4901161193847656e-8,
                1.0
            ],
            "children": [
                70
            ]
        },
        {
            "name": "mixamorig:RightToe_End",
            "matrix": [
                0.9999997615814209,
                -9.236840625703735e-9,
                2.993615311197573e-8,
                0.0,
                9.236842402060574e-9,
                0.9999997615814209,
                -4.0997623074190415e-8,
                0.0,
                -2.9936160217403085e-8,
                4.099763373233145e-8,
                1.0,
                -0.0,
                -7.450580596923828e-9,
                0.18499991297721863,
                9.758514352142811e-8,
                1.0
            ]
        },
        {
            "name": "Jump_mesh",
            "mesh": 0
        }
    ],
    "samplers": [
        {},
        {}
    ],
    "scenes": [
        {
            "nodes": [
                0
            ]
        }
    ],
    "textures": [
        {
            "source": 0,
            "sampler": 0
        },
        {
            "source": 1,
            "sampler": 1
        }
    ],
    "scene": 0
}