{
    "asset": {
        "version": "2.0",
        "generator": "Open Asset Import Library (assimp v6.0.b447485c)"
    },
    "extensionsUsed": [
        "KHR_materials_specular",
        "KHR_materials_volume",
        "FB_ngon_encoding"
    ],
    "accessors": [
        {
            "bufferView": 0,
            "byteOffset": 0,
            "componentType": 5126,
            "count": 287,
            "type": "VEC3",
            "max": [
                1.0,
                1.0,
                1.0
            ],
            "min": [
                -1.0,
                -1.0,
                -1.0
            ]
        },
        {
            "bufferView": 1,
            "byteOffset": 0,
            "componentType": 5126,
            "count": 287,
            "type": "VEC3",
            "max": [
                1.0,
                0.9949957132339478,
                1.0
            ],
            "min": [
                -1.0,
                -0.9949957132339478,
                -0.9802903532981873
            ]
        },
        {
            "bufferView": 2,
            "byteOffset": 0,
            "componentType": 5126,
            "count": 287,
            "type": "VEC2",
            "max": [
                1.0,
                1.0
            ],
            "min": [
                0.0,
                0.0
            ]
        },
        {
            "bufferView": 3,
            "byteOffset": 0,
            "componentType": 5125,
            "count": 1440,
            "type": "SCALAR",
            "max": [
                286
            ],
            "min": [
                0
            ]
        }
    ],
    "buffers": [
        {
            "byteLength": 14944,
            "uri": "asd.bin"
        }
    ],
    "bufferViews": [
        {
            "buffer": 0,
            "byteOffset": 0,
            "byteLength": 3444,
            "target": 34962
        },
        {
            "buffer": 0,
            "byteOffset": 3444,
            "byteLength": 3444,
            "target": 34962
        },
        {
            "buffer": 0,
            "byteOffset": 6888,
            "byteLength": 2296,
            "target": 34962
        },
        {
            "buffer": 0,
            "byteOffset": 9184,
            "byteLength": 5760,
            "target": 34963
        }
    ],
    "materials": [
        {
            "name": "BaseWhite",
            "pbrMetallicRoughness": {
                "metallicFactor": 0.0
            },
            "extensions": {
                "KHR_materials_specular": {
                    "specularFactor": 1.0,
                    "specularColorFactor": [
                        0.0,
                        0.0,
                        0.0
                    ]
                }
            }
        }
    ],
    "meshes": [
        {
            "primitives": [
                {
                    "extensions": {
                        "FB_ngon_encoding": {}
                    },
                    "mode": 4,
                    "material": 0,
                    "indices": 3,
                    "attributes": {
                        "POSITION": 0,
                        "NORMAL": 1,
                        "TEXCOORD_0": 2
                    }
                }
            ]
        }
    ],
    "nodes": [
        {
            "name": "asd",
            "mesh": 0
        }
    ],
    "scenes": [
        {
            "nodes": [
                0
            ]
        }
    ],
    "scene": 0
}